<?xml version="1.0" encoding="utf-8"?>
<!-- Generator: Adobe Illustrator 22.1.0, SVG Export Plug-In . SVG Version: 6.00 Build 0)  -->
<svg version="1.1" id="Layer_1" xmlns="http://www.w3.org/2000/svg" xmlns:xlink="http://www.w3.org/1999/xlink" x="0px" y="0px"
	 viewBox="0 0 500 500" style="enable-background:new 0 0 500 500;" xml:space="preserve" alt="404 Error Message" >
<style type="text/css">
	.st0{opacity:0.3;enable-background:new    ;}
	.st1{fill:#A1106A;}
	.st2{font-family:'Chalkboard';}
	.st3{font-size:64.8211px;}
	.st4{font-size:9.68px;}
	.st5{fill:#3C2A34;}
	.st6{fill:#E76650;}
	.st7{fill:#FBE4D3;}
	.st8{fill:#EFCAC4;}
	.st9{fill:#707173;}
	.st10{fill:#FAB217;}
	.st11{fill:#F8E2D2;}
	.st12{fill:#EE3A3D;}
	.st13{fill:#FFF9EF;}
	.st14{fill:#FFFFFF;}
	.st15{font-family:'ArialMT';}
	.st16{font-size:15.75px;}
</style>
<g id="BACKGROUND">
</g>
<ellipse class="st0" cx="242.2" cy="376.3" rx="88.2" ry="5.4"/>
<text transform="matrix(1 0 0 1 207.2788 191.332)" class="st1 st2 st3">404</text>
<text transform="matrix(1 0 0 1 163.791 207.3032)" class="st1 st2 st4">The Page You Requested Could Not Be Found.</text>
<g>
	<g>
		<g>
			<path class="st5" d="M230.5,238.8l-13.4-21.3c0,0-10.4,2.2-9.9,23.3L230.5,238.8z"/>
			<path class="st6" d="M225.1,240l-8.4-16.4c0,0-7.7,4.8-7.4,17L225.1,240z"/>
			<path class="st7" d="M220.9,237.4c0,0-0.5-6.4-6.4-7.6l2.3,4.3c0,0-1.3-0.8-3.8-0.4c0,0,2.9,2.3,3.1,4.7c0,0,0.9-2.5-1.3-4.3
				c0,0,2.3,0.7,2.9,1.6c0,0,0-2.7-1.6-4.3C216,231.3,219.2,232.9,220.9,237.4z"/>
		</g>
		<g>
			<path class="st5" d="M261.6,238.8l13.4-21.3c0,0,10.4,2.2,9.9,23.3L261.6,238.8z"/>
			<path class="st6" d="M267,240l8.4-16.4c0,0,7.7,4.8,7.3,17L267,240z"/>
			<path class="st7" d="M271.2,237.4c0,0,0.5-6.4,6.5-7.6l-2.3,4.3c0,0,1.3-0.8,3.8-0.4c0,0-2.9,2.3-3.1,4.7c0,0-0.9-2.5,1.3-4.3
				c0,0-2.3,0.7-2.9,1.6c0,0,0-2.7,1.6-4.3C276.1,231.3,272.9,232.9,271.2,237.4z"/>
		</g>
	</g>
	<path class="st7" d="M207.3,240.8c0,0-26.3,38.2-21.3,48.5c5,10.3,59.9,61.5,59.9,61.5s60.7-59.3,60.7-72s-21.7-38-21.7-38
		S242.5,232.1,207.3,240.8z"/>
	<path class="st7" d="M190.6,376.9c0,0-35.2-30.2-0.6-106.4c12.2-27,105.9-20,112.2-5.2c31.1,73.6,4.3,111.7,4.3,111.7H190.6z"/>
	<path class="st8" d="M190,270.5c0,0-9.3,119.2,127.2,62.2c0,0,1.6,25.3-10.7,44.2H186C186,376.9,158.7,333.5,190,270.5z"/>
	<polygon class="st5" points="245.6,257.6 245.6,281.9 240.5,291.8 247.1,283.4 253.1,291.8 248,281 247.1,256.8 	"/>
	<path class="st5" d="M285.1,321.6c0,0,3.3,21.9-5.6,29.2c0,0,0.8-5.8,0-12c0,0-5.5,16.8-22.4,19.7c0,0,11.7,3.5,21.1-14
		c0,0,0.8,8.2,0,10.8C278.2,355.3,291.7,347,285.1,321.6z"/>
	<path class="st5" d="M279.1,285.1c0,0,2.3,22-6.9,28.9c0,0,1.1-5.8,0.6-12c0,0-6.3,16.6-23.2,18.6c0,0,11.5,4,21.8-13.1
		c0,0,0.3,8.2-0.5,10.8C270.7,318.4,284.5,310.7,279.1,285.1z"/>
	<path class="st5" d="M204.1,321.6c0,0-3.3,21.9,5.6,29.2c0,0-0.8-5.8,0-12c0,0,5.6,16.8,22.4,19.7c0,0-11.7,3.5-21.1-14
		c0,0-0.8,8.2,0,10.8C211,355.3,197.5,347,204.1,321.6z"/>
	<path class="st5" d="M194.5,286.5c0,0-14,21.3-10.1,32.6c0,0,2.3-6.4,6.1-12.5c0,0-3.9,19.7,8.9,29.7c0,0-11.7-1.2-10.6-23.3
		c0,0-4.7,8.2-5.5,11.2C183.2,324.2,176.1,310.1,194.5,286.5z"/>
	<path class="st5" d="M215.1,295.6c0,0,8.5,18.6,26.2,25.9l-10.3-12.9c0,0,15,10.3,25.5,5.3c0,0-8.9,6.9-19.2-0.6l6.1,10.5
		C243.4,323.8,222.6,318.8,215.1,295.6z"/>
	<path class="st8" d="M188.6,376.9c0,0,7.6-40.6-15.6-48.6c-17.6-6.1-26-26.9-9.3-39.7c0,0-36.8,4.1-19.2,49l-7.3-9.4
		C137.2,328.3,121.8,378.8,188.6,376.9z"/>
	<path class="st5" d="M150.7,311.4c0,0-3.3,21.9,5.6,29.2c0,0-0.8-5.8,0-12c0,0,5.6,16.8,22.4,19.7c0,0-11.7,3.5-21.1-14
		c0,0-0.8,8.2,0,10.8C157.6,345.1,144.1,336.8,150.7,311.4z"/>
	<path class="st5" d="M262.4,278.5c0,0-9.8-24.1-17.7-22.1c-7.6,2-15.1,22.9-15.1,22.9s7.6-26.3,16.8-25.8
		C255.6,254,262.4,278.5,262.4,278.5z"/>
	<g>
		<polygon class="st5" points="241,242.1 240.6,252.8 210.7,252.8 239.3,251.3 		"/>
		<polygon class="st5" points="251,242.1 251.4,252.8 281.3,252.8 252.7,251.3 		"/>
	</g>
	<g>
		<path class="st6" d="M241,256.1c0,0,3,7.9,5.5,7.7c3.1-0.4,5.1-7.5,5.1-7.5S246.8,249.4,241,256.1z"/>
		<path class="st7" d="M245.5,262c0,0-0.2-4.6-2.1-4.6C243.4,257.3,245.2,259.3,245.5,262z"/>
		<path class="st7" d="M246.8,262c0,0,0.2-4.6,2.1-4.6C248.9,257.3,247.2,259.3,246.8,262z"/>
	</g>
	<g>
		<g>
			<path class="st9" d="M209.2,254.3h28.6c0,0-3.4,23.8-14.2,20.6C212.7,271.8,209.2,254.3,209.2,254.3z"/>
			<path class="st10" d="M209.2,254.3h28.6c0,0-3.4,17.6-14.2,15C212.7,266.6,209.2,254.3,209.2,254.3z"/>
			<path class="st5" d="M216.3,254.3h17.4c0,0-2,9-8.7,9.1C217.9,263.7,216.3,254.3,216.3,254.3z"/>
			<path class="st7" d="M234.1,257.5c0,0.8-0.7,1.4-1.4,1.4s-1.5-0.7-1.5-1.4c0-0.8,0.7-1.5,1.5-1.5
				C233.4,256.1,234.1,256.7,234.1,257.5z"/>
		</g>
		<g>
			<path class="st9" d="M282.9,254.3h-28.6c0,0,3.9,23.6,14.8,20.5C279.8,271.6,282.9,254.3,282.9,254.3z"/>
			<path class="st10" d="M282.9,254.3h-28.6c0,0,3.5,17.6,14.2,15C279.4,266.6,282.9,254.3,282.9,254.3z"/>
			<path class="st5" d="M275.8,254.3h-17.4c0,0,1.9,9,8.7,9.1C274.2,263.7,275.8,254.3,275.8,254.3z"/>
			<path class="st7" d="M272.4,257.5c0,0.8,0.7,1.4,1.5,1.4c0.8,0,1.4-0.7,1.4-1.4c0-0.8-0.7-1.5-1.4-1.5
				C273.1,256.1,272.4,256.7,272.4,257.5z"/>
		</g>
	</g>
	<path class="st11" d="M341.5,299.8c0,0-3.5,29.2-30.9,30.5l-1.1-45.2c0,0,10.6,23.5,20.8,2.2C330.4,287.3,341.4,292.3,341.5,299.8z
		"/>
	<polygon class="st5" points="328.3,276.3 330.4,314.3 326.1,314.3 324.7,276.3 	"/>
	<path class="st11" d="M330.3,285.8c0,0-12.1,0.5-10.2,9.9s8.5,18.4,15.9,13.9C343.3,305.1,345.3,287.1,330.3,285.8z"/>
	<polygon class="st6" points="313.9,279.2 300.4,255.8 313.9,232.5 340.9,232.5 354.4,255.8 340.9,279.2 	"/>
	<path class="st12" d="M311.7,241c0-1.9,0.1-3.8,0.6-5.7l-11.8,20.6l13.5,23.3h27l5.8-10c-1.9,0.4-3.9,0.6-6,0.6
		C324.7,269.9,311.7,257,311.7,241z"/>
	<path class="st13" d="M339.7,276.8h-24.5l-12.3-20.9l12.3-20.9h24.5l12.2,20.9L339.7,276.8z M316,275.3h22.9l11.4-19.4l-11.4-19.4
		H316l-11.4,19.4L316,275.3z"/>
	<g>
		<text transform="matrix(1 0 0 1 309.9443 261.8564)" class="st14 st15 st16">Error</text>
	</g>
	<g>
		<path class="st5" d="M186.8,254.3c0,0,17.5,17.1,56.8,14C243.5,268.3,206.5,274.7,186.8,254.3z"/>
		<path class="st5" d="M180.4,263.3c0,0,24.2,15.9,62.9,6.2C243.2,269.5,202.6,281,180.4,263.3z"/>
		<path class="st5" d="M186.8,276.1c0,0,22.9,11.9,56.9-5.6C243.5,270.5,211.1,290.7,186.8,276.1z"/>
		<path class="st5" d="M305.3,254.3c0,0-17.5,17.1-56.8,14C248.5,268.3,285.6,274.7,305.3,254.3z"/>
		<path class="st5" d="M310.9,263.3c0,0-23.5,15.9-62,6.2C248.8,269.5,288.7,281,310.9,263.3z"/>
		<path class="st5" d="M305.3,276.1c0,0-22.9,11.9-56.9-5.6C248.5,270.5,280.9,290.7,305.3,276.1z"/>
	</g>
	<path class="st5" d="M300.6,293.3c0,0,12.9,18,8.3,28.5c0,0-2-5.5-5.5-10.6c0,0,2.8,17.5-11,27.8c0,0,12.1-2.2,12.4-22.1
		c0,0,4.3,6.9,5,9.6C309.8,326.4,318,312.8,300.6,293.3z"/>
</g>
</svg>
